<svg xmlns="http://www.w3.org/2000/svg" fill="none" viewBox="0 0 22 22">
<path d="M2.57812 21.7422C2.57812 21.4242 2.65547 21.2609 2.85313 21.1664C2.98633 21.102 3.7168 21.0977 11.4469 21.0977H19.8945V21.5488V22H11.2363H2.57812V21.7422Z" fill="#4F98FF"/>
<path d="M19.0352 17.2519V13.6641H19.2027C19.293 13.6641 19.4863 13.6512 19.6324 13.6383L19.8945 13.6082V17.2262V20.8398H19.4648H19.0352V17.2519Z" fill="#4F98FF"/>
<path d="M2.10117 19.6926C1.89063 19.4906 1.84766 19.4262 1.84766 19.3059V19.1641H7.4293C12.6844 19.1641 13.0152 19.1598 13.0969 19.091C13.1441 19.048 15.1164 15.2066 17.4883 10.5488C19.8559 5.8953 21.8153 2.07108 21.841 2.05389C21.9914 1.95936 22 2.00662 22 2.77576V3.53201L20.1481 7.14999C19.1297 9.13514 17.2391 12.8262 15.95 15.3484L13.5996 19.9375H7.9793H2.35898L2.10117 19.6926Z" fill="#4F98FF"/>
<path d="M1.63281 18.7516C1.63281 18.6313 1.89922 18.0684 2.78008 16.3453L3.92305 14.0938H5.2293H6.53125V14.257C6.53125 14.3902 6.29493 14.8844 5.39688 16.6547L4.25821 18.8848L2.94766 18.8977L1.63281 18.9063V18.7516Z" fill="#4F98FF"/>
<path d="M4.59766 18.7516C4.59766 18.6356 4.87266 18.0598 5.74492 16.3453L6.89649 14.0938H8.23711H9.58204V14.2355C9.58204 14.3301 9.22539 15.0691 8.43047 16.6289L7.27891 18.8848L5.93828 18.8977L4.59766 18.9063V18.7516Z" fill="#4F98FF"/>
<path d="M7.60547 18.7688C7.60547 18.6699 7.96211 17.9266 8.75703 16.3711L9.9043 14.1152L11.2707 14.1023L12.6371 14.0938L12.6242 14.2613C12.6156 14.3773 12.2676 15.1035 11.4727 16.6633L10.334 18.9063H8.97188H7.60547V18.7688Z" fill="#4F98FF"/>
<path d="M10.6562 18.7688C10.6605 18.6699 11.0172 17.9223 11.8121 16.3711L12.968 14.1152L14.1539 14.1023L15.3398 14.0938V14.227C15.3398 14.3172 14.9703 15.0949 14.1926 16.6332L13.041 18.9063H11.8508H10.6562V18.7688Z" fill="#4F98FF"/>
<path d="M4.21094 13.6855C4.21094 13.5738 4.44297 13.0754 5.11758 11.7519L6.02422 9.96873H7.35196H8.67969V10.089C8.67969 10.1535 8.29297 10.9656 7.76016 12.0098L6.84063 13.8144L5.52578 13.8273L4.21094 13.8359V13.6855Z" fill="#4F98FF"/>
<path d="M7.17578 13.6855C7.17578 13.5738 7.41641 13.0668 8.08672 11.7519L8.99766 9.96873H10.3426H11.6875L11.6918 10.089C11.6918 10.1578 11.3395 10.9055 10.7766 12.0183L9.86133 13.8359H8.5207H7.17578V13.6855Z" fill="#4F98FF"/>
<path d="M10.1836 13.7027C10.1836 13.6125 10.4887 12.968 11.0988 11.7691L12.0098 9.96873H13.3762H14.7426L14.7297 10.132C14.7211 10.2351 14.4117 10.8883 13.8145 12.0613L12.9121 13.8359H11.55H10.1836V13.7027Z" fill="#4F98FF"/>
<path d="M13.2387 13.6984C13.2387 13.6039 13.5352 12.9766 14.1539 11.7734L15.0691 9.99022L16.2551 9.97733L17.4453 9.96873V10.1019C17.4453 10.1922 17.1402 10.8367 16.5344 12.0355L15.6191 13.8359H14.4289H13.2344L13.2387 13.6984Z" fill="#4F98FF"/>
<path d="M18.8676 13.2945C18.6098 13.1656 18.4594 12.968 18.3949 12.6758C18.3691 12.5684 18.3477 12.1559 18.3477 11.7605V11.0344L19.2629 9.25546L20.1738 7.47655H20.3156H20.4531V10.0848C20.4531 12.6414 20.4531 12.6973 20.3629 12.8777C20.1867 13.2387 19.873 13.4062 19.3703 13.4062C19.1598 13.4062 19.0438 13.3805 18.8676 13.2945Z" fill="#4F98FF"/>
<path d="M6.31641 9.55194C6.3207 9.42733 6.55703 8.9203 7.36055 7.34764L8.40039 5.30663L9.72383 5.29374L11.043 5.28514V5.42264C11.043 5.52147 10.7207 6.19178 9.99453 7.62694L8.9418 9.68944L7.63125 9.70233L6.31641 9.71093V9.55194Z" fill="#4F98FF"/>
<path d="M9.28125 9.55194C9.28555 9.42733 9.52187 8.9246 10.3297 7.34764L11.3695 5.30663L12.7102 5.29374L14.0508 5.28514V5.44413C14.0465 5.56874 13.8102 6.07147 13.0066 7.64843L11.9625 9.68944L10.6219 9.70233L9.28125 9.71093V9.55194Z" fill="#4F98FF"/>
<path d="M12.3409 9.50898C12.3538 9.3414 12.5472 8.9203 13.3765 7.29608L14.3991 5.28514H15.7741H17.1448V5.40546C17.1448 5.49999 15.2843 9.24687 15.0565 9.6164L14.9964 9.71093H13.6601H12.3237L12.3409 9.50898Z" fill="#4F98FF"/>
<path d="M15.3828 9.53476C15.3828 9.39296 15.5676 9.00194 16.4227 7.32186L17.4625 5.28514H18.6356H19.8086V5.44842C19.8043 5.56874 19.5637 6.08007 18.7645 7.64843L17.7246 9.68944L16.5559 9.70233L15.3828 9.71093V9.53476Z" fill="#4F98FF"/>
<path d="M3.56641 7.51952V6.91796H3.95313H4.33984V7.51952V8.12108H3.95313H3.56641V7.51952Z" fill="#4F98FF"/>
<path d="M1.01836 6.96951C0.898047 6.84491 0.859375 6.77186 0.859375 6.65584C0.859375 6.52694 0.902344 6.46248 1.19453 6.17459C1.60273 5.77069 1.68867 5.7535 1.96367 6.0242C2.24297 6.2992 2.22578 6.38944 1.81328 6.80194C1.52539 7.08983 1.46094 7.1328 1.32773 7.1328C1.21172 7.1328 1.14297 7.09842 1.01836 6.96951Z" fill="#4F98FF"/>
<path d="M6.04594 6.79764C5.63774 6.38944 5.62055 6.29921 5.89985 6.02421C6.17914 5.74921 6.26508 5.77069 6.67329 6.17889C6.96118 6.46678 7.00415 6.53124 7.00415 6.66444C7.00415 6.87499 6.74204 7.1328 6.52719 7.1328C6.39828 7.1328 6.33383 7.08983 6.04594 6.79764Z" fill="#4F98FF"/>
<path d="M3.53636 6.14451C3.1969 6.09295 2.7801 5.87811 2.53948 5.63319C1.77034 4.84686 1.86917 3.39451 2.72854 2.74568C3.29143 2.32459 4.17659 2.25154 4.83831 2.5781C5.16058 2.73709 5.50433 3.08943 5.66331 3.42459C5.77073 3.65662 5.77933 3.71248 5.77933 4.27537C5.77933 4.86834 5.77503 4.88553 5.64183 5.16053C5.268 5.91678 4.48597 6.28201 3.53636 6.14451Z" fill="#4F98FF"/>
<path d="M8.67969 4.89413C8.67969 4.8039 8.98477 4.15507 9.60781 2.93905L10.5316 1.11717H11.8422H13.1484V1.27186C13.1484 1.39217 12.925 1.86913 12.2375 3.22694L11.3223 5.02733H10.0031H8.67969V4.89413Z" fill="#4F98FF"/>
<path d="M11.6445 4.89843C11.6445 4.81249 11.9668 4.12929 12.5727 2.94335L13.5008 1.11717H14.85H16.1992V1.24608C16.1992 1.33202 15.8727 2.01522 15.2668 3.20116L14.3387 5.02733H12.9895H11.6445V4.89843Z" fill="#4F98FF"/>
<path d="M14.6953 4.87265C14.6953 4.75233 14.9145 4.28397 15.6105 2.91757L16.5215 1.11717H17.8879H19.25V1.25897C19.25 1.3535 18.9578 1.96366 18.3305 3.20116L17.4109 5.00585L16.0531 5.01874L14.6953 5.02733V4.87265Z" fill="#4F98FF"/>
<path d="M17.7461 4.86835C17.7504 4.74374 17.9652 4.28397 18.6613 2.92186L19.5723 1.13866L20.7668 1.12577L21.957 1.11717V1.25038C21.957 1.33632 21.6434 1.99803 21.0289 3.20546L20.1008 5.02733H18.9234H17.7461V4.86835Z" fill="#4F98FF"/>
<path d="M0 4.08202V3.6953H0.53711H1.07422V4.08202V4.46874H0.53711H0V4.08202Z" fill="#4F98FF"/>
<path d="M6.74609 4.08202V3.6953H7.36914H7.99649L7.9836 4.07342L7.9707 4.44725L7.36055 4.46014L6.74609 4.47303V4.08202Z" fill="#4F98FF"/>
<path d="M1.16875 1.96366C0.902344 1.69725 0.859375 1.6328 0.859375 1.4996C0.859375 1.28905 1.12148 1.03124 1.33633 1.03124C1.46523 1.03124 1.52969 1.07421 1.79609 1.34491C2.0625 1.61132 2.10547 1.67577 2.10547 1.80897C2.10547 2.01952 1.84336 2.27733 1.62852 2.27733C1.49961 2.27733 1.43516 2.23436 1.16875 1.96366Z" fill="#4F98FF"/>
<path d="M5.87383 2.11405C5.75352 1.98944 5.71484 1.91639 5.71484 1.80037C5.71484 1.67147 5.75781 1.60701 6.05 1.31912C6.4582 0.915217 6.54414 0.898029 6.81914 1.16873C7.09844 1.44373 7.08125 1.53397 6.66875 1.94647C6.38086 2.23436 6.31641 2.27733 6.1832 2.27733C6.06719 2.27733 5.99844 2.24295 5.87383 2.11405Z" fill="#4F98FF"/>
<path d="M3.52318 0.644511C3.52318 -0.047286 3.49739 -0.0129109 3.99583 0.00857345L4.27513 0.0214641L4.28802 0.635918L4.30091 1.24607H3.90989H3.52318V0.644511Z" fill="#4F98FF"/>
</svg>