<svg xmlns="http://www.w3.org/2000/svg" fill="none" viewBox="4.6 0 11.81 20.99">
<path d="M6.01685 20.959C5.30728 20.8688 4.72485 20.2699 4.63052 19.5316C4.5854 19.1748 4.5854 4.4502 4.63052 4.09336C4.72896 3.33457 5.30317 2.76035 6.05376 2.66191C6.4229 2.6168 14.5768 2.6168 14.9459 2.66191C15.6965 2.76035 16.2708 3.33457 16.3692 4.09336C16.4143 4.4584 16.4143 19.1748 16.3692 19.5398C16.2708 20.2904 15.6965 20.8647 14.9377 20.9631C14.6055 21.0041 6.35317 21 6.01685 20.959ZM10.0569 17.3414C10.0897 17.3127 11.1602 15.8033 12.4317 13.9863C14.4333 11.1275 14.745 10.66 14.7573 10.5164C14.7696 10.3811 14.7532 10.3277 14.6793 10.258C14.5891 10.1719 14.5604 10.1719 13.0346 10.1719H11.4842V8.28516C11.4842 6.45176 11.4801 6.39434 11.4022 6.31641C11.3079 6.22207 11.0454 6.20566 10.9428 6.2877C10.91 6.31231 9.8395 7.82168 8.56802 9.63867C6.56645 12.4975 6.25474 12.965 6.24243 13.1086C6.23013 13.2439 6.24653 13.2973 6.32036 13.367C6.4106 13.4531 6.43931 13.4531 7.96509 13.4531H9.51548V15.3398C9.51548 17.1732 9.51958 17.2307 9.59751 17.3086C9.69184 17.4029 9.95435 17.4193 10.0569 17.3414Z" fill="#4F98FF"/>
<path d="M10.1759 14.4744C10.1718 13.248 10.1595 12.9609 10.1144 12.8953C10.0569 12.8215 9.979 12.8174 8.646 12.7969L7.23096 12.7764L9.01924 10.2211L10.8075 7.66992L10.828 9.1834C10.8444 10.3523 10.8608 10.7133 10.9019 10.7543C10.9429 10.7953 11.2833 10.8117 12.362 10.8281L13.7688 10.8486L12.0298 13.3301C11.0741 14.6959 10.2661 15.8484 10.2333 15.8936C10.1841 15.9633 10.1759 15.7787 10.1759 14.4744Z" fill="#4F98FF"/>
<path d="M6.89844 1.35762C6.91895 0.771094 6.92305 0.738282 7.04199 0.529102C7.19375 0.254298 7.48086 0.0656258 7.80078 0.0287117C8.08379 -0.00820236 12.9154 -0.00820236 13.1984 0.0287117C13.5184 0.0656258 13.8055 0.254298 13.9572 0.529102C14.0762 0.738282 14.0803 0.771094 14.1008 1.35762L14.1213 1.96875H10.4996H6.87793L6.89844 1.35762Z" fill="#4F98FF"/>
</svg>