<svg xmlns="http://www.w3.org/2000/svg" fill="none" viewBox="0.77 0.75 22.45 22.49">
<path d="M1.70156 23.2078C1.3875 23.1562 1.0875 22.9359 0.91875 22.6406L0.773438 22.3828V18V13.6172L0.91875 13.3594C1.0875 13.0547 1.42031 12.825 1.7625 12.7781C2.04844 12.7406 9.95156 12.7406 10.2375 12.7781C10.5797 12.825 10.9125 13.0547 11.0812 13.3594L11.2266 13.6172V18V22.3828L11.0812 22.6406C10.9031 22.9594 10.575 23.175 10.2094 23.2172C9.87656 23.2594 1.95 23.2453 1.70156 23.2078Z" fill="#4D6A99"/>
<path d="M13.7016 23.2078C13.3875 23.1562 13.0875 22.9359 12.9188 22.6406L12.7734 22.3828V18V13.6172L12.9188 13.3594C13.0875 13.0547 13.4203 12.825 13.7625 12.7781C14.0484 12.7406 21.9516 12.7406 22.2375 12.7781C22.5797 12.825 22.9125 13.0547 23.0812 13.3594L23.2266 13.6172V18V22.3828L23.0812 22.6406C22.9031 22.9594 22.575 23.175 22.2094 23.2172C21.8766 23.2594 13.95 23.2453 13.7016 23.2078Z" fill="#4D6A99"/>
<path d="M1.70156 11.2078C1.3875 11.1562 1.0875 10.9359 0.91875 10.6406L0.773438 10.3828V6V1.61719L0.91875 1.35938C1.0875 1.05469 1.42031 0.825 1.7625 0.778125C2.04844 0.740625 9.95156 0.740625 10.2375 0.778125C10.5797 0.825 10.9125 1.05469 11.0812 1.35938L11.2266 1.61719V6V10.3828L11.0812 10.6406C10.9031 10.9594 10.575 11.175 10.2094 11.2172C9.87656 11.2594 1.95 11.2453 1.70156 11.2078Z" fill="#4D6A99"/>
<path d="M13.7016 11.2078C13.3875 11.1562 13.0875 10.9359 12.9188 10.6406L12.7734 10.3828V6V1.61719L12.9188 1.35938C13.0875 1.05469 13.4203 0.825 13.7625 0.778125C14.0484 0.740625 21.9516 0.740625 22.2375 0.778125C22.5797 0.825 22.9125 1.05469 23.0812 1.35938L23.2266 1.61719V6V10.3828L23.0812 10.6406C22.9031 10.9594 22.575 11.175 22.2094 11.2172C21.8766 11.2594 13.95 11.2453 13.7016 11.2078Z" fill="#4D6A99"/>
</svg>