<svg xmlns="http://www.w3.org/2000/svg" fill="none" viewBox="10.36 11.02 23.95 23.93">
<path d="M30.9346 34.8641C30.8596 34.8172 30.3111 34.2875 29.7158 33.6922L28.6377 32.6094H24.583C21.133 32.6094 20.4814 32.5953 20.2283 32.5391C19.1877 32.2906 18.3205 31.4562 17.9877 30.3828C17.908 30.1203 17.9033 29.8531 17.9033 26.1406V22.1797L18.0111 21.8281C18.1705 21.3125 18.4143 20.9094 18.7893 20.5344C19.1643 20.1594 19.5674 19.9156 20.083 19.7563L20.4346 19.6484H26.1064C31.4736 19.6484 31.7924 19.6531 32.0549 19.7328C32.983 20.0188 33.6627 20.6094 34.0471 21.4625C34.3143 22.0484 34.3096 21.9922 34.3096 26.1641C34.3096 30.3594 34.3189 30.1625 34.0424 30.8047C33.7049 31.5734 33.0252 32.1875 32.2096 32.4641L31.9658 32.5484L31.9424 33.5516C31.9189 34.4609 31.9096 34.5641 31.8252 34.6812C31.6189 34.9578 31.2158 35.0422 30.9346 34.8641ZM25.4736 28.4844C25.6002 28.4516 26.0455 28.0344 27.4518 26.6234C29.3971 24.6734 29.3783 24.6969 29.2986 24.3078C29.2143 23.8812 28.7314 23.6375 28.3002 23.8016C28.2299 23.825 27.5127 24.5 26.7158 25.3016L25.2627 26.75L24.6768 26.1594C24.1002 25.5781 23.8424 25.3953 23.5939 25.3906C23.4018 25.3906 23.0783 25.5875 22.9846 25.7656C22.8768 25.9578 22.8674 26.2859 22.9611 26.4594C22.9986 26.5297 23.4393 26.9937 23.9361 27.4906C24.9674 28.5125 25.0846 28.5922 25.4736 28.4844Z" fill="#4D6A99"/>
<path d="M13.0988 26.2859C13.0097 26.239 12.8879 26.1312 12.8316 26.0468C12.7285 25.8968 12.7238 25.85 12.7238 24.9172V23.9468L12.4801 23.8672C12.0066 23.7125 11.6785 23.5062 11.266 23.0937C10.9519 22.7797 10.8254 22.6203 10.6941 22.339C10.3379 21.589 10.3566 21.8375 10.3566 17.5156V13.6484L10.4644 13.2734C10.6191 12.739 10.8535 12.3453 11.266 11.9328C11.6785 11.5203 12.0722 11.2859 12.6066 11.1312L12.9816 11.0234H18.5363C24.6113 11.0234 24.3535 11.014 24.9816 11.3047C25.6332 11.6047 26.1254 12.0687 26.4347 12.6875C26.7676 13.3437 26.7582 13.264 26.7769 15.8375L26.791 18.1672L23.5426 18.1859C20.7254 18.2 20.2519 18.214 19.9707 18.2797C18.6535 18.5937 17.6035 19.3859 16.9941 20.5203C16.5676 21.3125 16.4738 21.739 16.441 23.0375L16.4129 24.0312H16.1972H15.9816L14.8801 25.1375C14.2754 25.7468 13.7129 26.2718 13.6285 26.3093C13.4269 26.3984 13.2957 26.3937 13.0988 26.2859Z" fill="#4D6A99"/>
</svg>