<svg xmlns="http://www.w3.org/2000/svg" fill="none" viewBox="0 0 28 16">
<g clip-path="url(#clip0_44_2020)">
<path d="M0.0984375 15.9385C0.0109375 15.8881 0 15.793 0 15.228V14.5734L1.91406 7.3958C2.96406 3.44615 3.85547 0.167832 3.88281 0.106294C3.94297 0 4.09062 0 13.9672 0C21.9242 0 24.0078 0.0167832 24.0516 0.0727273C24.0789 0.106294 24.9812 3.42937 26.0531 7.45175C27.9727 14.6462 28 14.7692 28 15.2895C28 15.7259 27.9836 15.8322 27.9016 15.9049C27.8086 15.9944 26.7641 16 13.9945 16C4.71953 15.9944 0.158594 15.9776 0.0984375 15.9385ZM25.7305 14.551C25.9875 14.428 26.1078 14.3049 26.2172 14.0308C26.2992 13.835 26.2773 13.751 24.7133 7.88252C23.8438 4.60979 23.1055 1.86294 23.0727 1.77343C22.9852 1.56084 22.6789 1.3035 22.4273 1.23077C22.2797 1.19161 19.5891 1.18042 13.8523 1.18601L5.49609 1.2028L5.29375 1.33147C5.17891 1.4042 5.03672 1.53287 4.97656 1.62238C4.85625 1.7958 1.69531 13.5664 1.69531 13.8462C1.69531 14.0867 1.925 14.4 2.19844 14.5399L2.43359 14.6573H13.9727C25.0523 14.6573 25.5227 14.6517 25.7305 14.551Z" fill="#4F98FF"/>
<path d="M2.35156 13.751C2.35156 13.6168 2.55938 12.7441 2.81094 11.8042L3.26484 10.0979L5.57266 10.0811C7.73828 10.0699 7.875 10.0755 7.875 10.165C7.875 10.2601 7.53047 13.2308 7.46484 13.751L7.43203 13.986H4.88906H2.35156V13.751Z" fill="#4F98FF"/>
<path d="M8.14844 13.6783C8.14844 13.5105 8.23594 12.6378 8.33984 11.7483C8.44375 10.8587 8.53125 10.1147 8.53125 10.0979C8.53125 10.0811 9.67422 10.0699 11.0742 10.0699H13.6172V12.028V13.986H10.8828H8.14844V13.6783Z" fill="#4F98FF"/>
<path d="M14.3281 12.028V10.0699H16.8711H19.4086L19.4359 10.2545C19.4906 10.5622 19.8516 13.7343 19.8516 13.8629V13.986H17.0898H14.3281V12.028Z" fill="#4F98FF"/>
<path d="M20.5078 13.9357C20.5078 13.9077 20.4203 13.158 20.3164 12.2685C20.2125 11.3846 20.125 10.5231 20.125 10.3608V10.0699L22.4055 10.0811L24.6914 10.0979L25.1672 11.8881C25.4297 12.8727 25.6484 13.7455 25.6484 13.835V13.986H23.0781C21.5359 13.986 20.5078 13.9636 20.5078 13.9357Z" fill="#4F98FF"/>
<path d="M3.55469 9.2028C3.55469 9.0965 3.7625 8.22937 4.01953 7.27273C4.27656 6.31608 4.48438 5.52168 4.48438 5.51049C4.48438 5.49371 5.35938 5.48252 6.42578 5.48252H8.36719V5.77902C8.36719 5.93566 8.27969 6.7972 8.17578 7.68112C8.07188 8.57063 7.98438 9.32028 7.98438 9.34825C7.98438 9.37622 7.09297 9.3986 5.76953 9.3986H3.55469V9.2028Z" fill="#4F98FF"/>
<path d="M8.66272 9.32028C8.63538 9.25315 8.96897 6.18741 9.06194 5.66713L9.08928 5.48252H11.3533H13.6174V7.44056V9.3986H11.1565C9.09475 9.3986 8.6846 9.38741 8.66272 9.32028Z" fill="#4F98FF"/>
<path d="M14.3281 7.44056V5.48252H16.5977H18.8672L18.8891 5.61119C18.9328 5.81259 19.3047 9.07413 19.3047 9.24755V9.3986H16.8164H14.3281V7.44056Z" fill="#4F98FF"/>
<path d="M19.9883 9.33147C19.9445 9.20839 19.5781 5.9972 19.5781 5.73427V5.48252H21.5141C23.3133 5.48252 23.4555 5.48811 23.4828 5.58322C23.7344 6.41119 24.3906 9.02937 24.3906 9.18601V9.3986H22.2031C20.5023 9.3986 20.0047 9.38182 19.9883 9.33147Z" fill="#4F98FF"/>
<path d="M4.8125 4.52028C4.8125 4.38601 4.95469 3.75385 5.12969 3.10489L5.44687 1.93007L7.12578 1.91329L8.80469 1.9021V2.13706C8.80469 2.27133 8.74453 2.88112 8.66797 3.4965C8.59141 4.11189 8.53125 4.64895 8.53125 4.68811C8.53125 4.73846 8.12109 4.75524 6.67188 4.75524H4.8125V4.52028Z" fill="#4F98FF"/>
<path d="M9.19297 4.57622C9.19297 4.47552 9.25859 3.83776 9.34063 3.16084L9.48828 1.93007L11.5555 1.91329L13.6172 1.9021V3.32867V4.75524H11.4023H9.1875L9.19297 4.57622Z" fill="#4F98FF"/>
<path d="M14.3281 3.32867V1.9021H16.3953H18.4625L18.6102 3.20559C18.6922 3.91608 18.7633 4.55944 18.7578 4.63217V4.75524H16.543H14.3281V3.32867Z" fill="#4F98FF"/>
<path d="M19.31 3.70909C19.2443 3.12727 19.1732 2.48951 19.1568 2.28252L19.124 1.9021H20.8139H22.5037L22.8482 3.20559C23.0396 3.91608 23.1928 4.55944 23.1873 4.63217V4.75524H21.3115H19.4303L19.31 3.70909Z" fill="#4F98FF"/>
</g>
<defs>
<clipPath id="clip0_44_2020">
<rect width="28" height="16" fill="white"/>
</clipPath>
</defs>
</svg>