<svg xmlns="http://www.w3.org/2000/svg" fill="none" viewBox="0.36 0.79 17.29 19.64">
<path d="M12.9284 4.71428C12.9284 6.91428 11.1998 8.64285 8.99979 8.64285C6.79979 8.64285 5.07122 6.91428 5.07122 4.71428C5.07122 2.51428 6.79979 0.785706 8.99979 0.785706C11.1998 0.785706 12.9284 2.51428 12.9284 4.71428ZM12.9284 9.42856L12.5355 10.6857C12.2998 11.3143 11.7498 11.7857 11.0426 11.7857H6.95693C6.24979 11.7857 5.69979 11.3143 5.46408 10.6857L5.07122 9.42856C3.65693 9.42856 2.47836 10.3714 2.24265 11.7071L0.356934 20.4286H17.6426L15.7569 11.7857C15.5212 10.3714 14.2641 9.42856 12.9284 9.42856Z" fill="#4F98FF"/>
</svg>