<svg xmlns="http://www.w3.org/2000/svg" fill="none" viewBox="13.36 11.79 17.29 19.64">
<path d="M25.9286 15.7143C25.9286 17.9143 24.2 19.6428 22 19.6428C19.8 19.6428 18.0715 17.9143 18.0715 15.7143C18.0715 13.5143 19.8 11.7857 22 11.7857C24.2 11.7857 25.9286 13.5143 25.9286 15.7143ZM25.9286 20.4286L25.5357 21.6857C25.3 22.3143 24.75 22.7857 24.0429 22.7857H19.9572C19.25 22.7857 18.7 22.3143 18.4643 21.6857L18.0715 20.4286C16.6572 20.4286 15.4786 21.3714 15.2429 22.7071L13.3572 31.4286H30.6429L28.7572 22.7857C28.5215 21.3714 27.2643 20.4286 25.9286 20.4286Z" fill="#4D6A99"/>
</svg>