<svg xmlns="http://www.w3.org/2000/svg" fill="none" viewBox="1.74 5.56 24.5 16.97">
<path d="M3.60938 19.5289V16.5211L8.54766 13.0211L13.4805 9.51562L13.5078 11.4023C13.5352 13.2563 13.5352 13.2891 13.6555 13.4094C13.7211 13.475 16.1602 15.2195 19.0695 17.2812L24.3633 21.0383L24.3797 21.7875L24.3961 22.5312H14H3.60938V19.5289Z" fill="#4F98FF"/>
<path d="M20.371 17.0188L14.5194 12.868L14.503 12.0969C14.4976 11.6703 14.503 11.3203 14.5194 11.3203C14.5632 11.3203 26.0312 19.4578 26.1569 19.5727C26.239 19.6547 26.2499 19.7586 26.239 20.4203L26.2226 21.1695L20.371 17.0188Z" fill="#4F98FF"/>
<path d="M1.76104 15.8594L1.77744 15.0773L2.98057 14.2188C5.4415 12.4687 15.1212 5.6 15.1868 5.56172C15.2251 5.53437 15.3782 5.70391 15.6134 6.02656C15.9524 6.50234 15.9688 6.53516 15.8759 6.62266C15.7829 6.70469 2.24775 16.3133 1.89775 16.543L1.74463 16.6414L1.76104 15.8594Z" fill="#4F98FF"/>
</svg>