<svg width="19" height="20" viewBox="0 0 19 20" fill="none" xmlns="http://www.w3.org/2000/svg">
<path fill-rule="evenodd" clip-rule="evenodd" d="M3 8.17857C3 5.31853 5.31853 3 8.17857 3C11.0386 3 13.3571 5.31853 13.3571 8.17857C13.3571 11.0386 11.0386 13.3571 8.17857 13.3571C5.31853 13.3571 3 11.0386 3 8.17857ZM8.17857 0C3.66167 0 0 3.66167 0 8.17857C0 12.6955 3.66167 16.3571 8.17857 16.3571C9.79348 16.3571 11.2991 15.8891 12.5671 15.0812L16.7429 19.2571L18.8642 17.1358L14.7614 13.0329C15.7643 11.6752 16.3571 9.9961 16.3571 8.17857C16.3571 3.66167 12.6955 0 8.17857 0Z" fill="white"/>
</svg>
