<svg xmlns="http://www.w3.org/2000/svg" fill="none" viewBox="11.32 10.52 21.35 23.94">
<path d="M20.969 34.4484C16.9658 34.2422 13.3893 31.6031 11.9783 27.8203C10.5908 24.1031 11.4487 19.9359 14.1908 17.114C15.7752 15.4875 17.6502 14.4937 19.8674 14.1047C20.594 13.9781 21.8408 13.9359 22.5768 14.0109C26.8658 14.4562 30.4283 17.4984 31.4924 21.6328C31.7408 22.589 31.8158 23.1937 31.8158 24.2109C31.8158 25.2 31.7455 25.814 31.5158 26.7234C30.6955 30.0234 28.1924 32.7656 24.9768 33.8906C23.6549 34.35 22.4221 34.5234 20.969 34.4484ZM26.233 25.2468C26.5049 25.1109 26.6643 24.839 26.6643 24.5109C26.6596 24.1922 26.5283 23.9672 26.2424 23.8031C26.0549 23.6953 26.0362 23.6953 24.2408 23.6812L22.4221 23.6672V21.3375C22.4221 19.1625 22.4127 18.9937 22.333 18.8156C22.1033 18.314 21.4424 18.1687 21.0299 18.5297C20.7252 18.7968 20.7346 18.689 20.7346 21.8297C20.7346 24.4968 20.744 24.6937 20.8237 24.8672C20.8705 24.9703 20.9549 25.0922 21.0065 25.139C21.2408 25.35 21.3346 25.3593 23.758 25.3453C25.9096 25.3359 26.0643 25.3312 26.233 25.2468Z" fill="#4F98FF"/>
<path d="M31.4172 17.1141C31.1406 16.936 29.0641 14.836 28.9563 14.625C28.8531 14.4235 28.8531 14.0813 28.9563 13.8844C29.1578 13.5 29.7344 13.3594 30.1 13.6078C30.1937 13.6781 30.7938 14.2547 31.4313 14.8922C32.3828 15.8485 32.5938 16.0875 32.6406 16.2516C32.7203 16.5094 32.6734 16.7203 32.4906 16.9406C32.2094 17.2781 31.7828 17.3485 31.4172 17.1141Z" fill="#4F98FF"/>
<path d="M19.6938 12.0938C19.1969 11.9438 18.9391 11.4047 19.1594 10.9781C19.2485 10.8047 19.4829 10.6031 19.6469 10.5563C19.7172 10.5375 20.6079 10.5234 21.6251 10.5234C23.411 10.5234 23.4813 10.5281 23.6641 10.6219C23.8797 10.7344 24.0485 10.9547 24.0907 11.1891C24.161 11.5547 23.8891 11.9859 23.5235 12.0891C23.3032 12.15 19.8907 12.1547 19.6938 12.0938Z" fill="#4F98FF"/>
</svg>