<svg xmlns="http://www.w3.org/2000/svg" fill="none" viewBox="11.32 10.02 21.35 23.94">
<path d="M20.9687 33.9484C16.9656 33.7422 13.389 31.1031 11.9781 27.3203C10.5906 23.6031 11.4484 19.4359 14.1906 16.614C15.775 14.9875 17.65 13.9937 19.8672 13.6047C20.5937 13.4781 21.8406 13.4359 22.5765 13.5109C26.8656 13.9562 30.4281 16.9984 31.4922 21.1328C31.7406 22.089 31.8156 22.6937 31.8156 23.7109C31.8156 24.7 31.7453 25.314 31.5156 26.2234C30.6953 29.5234 28.1922 32.2656 24.9765 33.3906C23.6547 33.85 22.4218 34.0234 20.9687 33.9484ZM26.2328 24.7468C26.5047 24.6109 26.664 24.339 26.664 24.0109C26.6593 23.6922 26.5281 23.4672 26.2422 23.3031C26.0547 23.1953 26.0359 23.1953 24.2406 23.1812L22.4218 23.1672V20.8375C22.4218 18.6625 22.4125 18.4937 22.3328 18.3156C22.1031 17.814 21.4422 17.6687 21.0297 18.0297C20.725 18.2968 20.7343 18.189 20.7343 21.3297C20.7343 23.9968 20.7437 24.1937 20.8234 24.3672C20.8703 24.4703 20.9547 24.5922 21.0062 24.639C21.2406 24.85 21.3343 24.8593 23.7578 24.8453C25.9093 24.8359 26.064 24.8312 26.2328 24.7468Z" fill="#4D6A99"/>
<path d="M31.4172 16.6141C31.1406 16.436 29.0641 14.336 28.9563 14.125C28.8531 13.9235 28.8531 13.5813 28.9563 13.3844C29.1578 13 29.7344 12.8594 30.1 13.1078C30.1937 13.1781 30.7938 13.7547 31.4313 14.3922C32.3828 15.3485 32.5938 15.5875 32.6406 15.7516C32.7203 16.0094 32.6734 16.2203 32.4906 16.4406C32.2094 16.7781 31.7828 16.8485 31.4172 16.6141Z" fill="#4D6A99"/>
<path d="M19.6938 11.5938C19.1969 11.4438 18.9391 10.9047 19.1594 10.4781C19.2485 10.3047 19.4829 10.1031 19.6469 10.0563C19.7172 10.0375 20.6079 10.0234 21.6251 10.0234C23.411 10.0234 23.4813 10.0281 23.6641 10.1219C23.8797 10.2344 24.0485 10.4547 24.0907 10.6891C24.161 11.0547 23.8891 11.4859 23.5235 11.5891C23.3032 11.65 19.8907 11.6547 19.6938 11.5938Z" fill="#4D6A99"/>
</svg>